{"title":"Killjoys S02E04 1080p WEB-DL HEVC DD5.1 x265 [1080P][HEVC]","uid":15411198,"size":742924415,"categoryP":"video","categoryS":"hd___tv_shows","magnet":"?xt=urn:btih:48a05f6657885079cc1f926ae29955a852a8dbee&amp;dn=Killjoys+S02E04+1080p+WEB-DL+HEVC+DD5.1+x265+%5B1080P%5D%5BHEVC%5D&amp;tr=udp%3A%2F%2Ftracker.leechers-paradise.org%3A6969&amp;tr=udp%3A%2F%2Fzer0day.ch%3A1337&amp;tr=udp%3A%2F%2Fopen.demonii.com%3A1337&amp;tr=udp%3A%2F%2Ftracker.coppersurfer.tk%3A6969&amp;tr=udp%3A%2F%2Fexodus.desync.com%3A6969","seeders":5,"leechers":0,"uploader":"nayhtut","files":1,"time":1469557502,"description":"[Screenshots]\r\n\r\n \nhttps://s31.postimg.org/cltfczzkb/Killjoys_S02_E04_1080p_WEB_DL_HEVC_DD5_1_x265_012.jpg \nhttps://s31.postimg.org/dcm5is1xn/Killjoys_S02_E04_1080p_WEB_DL_HEVC_DD5_1_x265_011.jpg \nhttps://s31.postimg.org/ynjpn1k23/Killjoys_S02_E04_1080p_WEB_DL_HEVC_DD5_1_x265_010.jpg\r\n\r\n\r\n\r\nSource: Killjoys S02E04 1080p WEB-DL DD5.1 H.264-VietHD (1.68 GB)\r\n\r\n\r\n__--__--__--__--__--__--__--__--__--__--__--__--__--\r\n\r\n\r\nComplete name                            : Killjoys.S02E04.1080p.WEB-DL.HEVC.DD5.1.x265.mkv\r\nFormat                                   : Matroska\r\nFormat version                           : Version 4 / Version 2\r\nFile size                                : 709 MiB\r\nDuration                                 : 42mn 32s\r\nOverall bit rate                         : 2 329 Kbps\r\nWriting application                      : Lavf57.25.100\r\nWriting library                          : Lavf57.25.100\r\n\r\nVideo\r\n\r\nID                                       : 1\r\nFormat                                   : V_MPEGH/ISO/HEVC\r\nCodec ID                                 : V_MPEGH/ISO/HEVC\r\nDuration                                 : 42mn 32s\r\nBit rate                                 : 1 898 Kbps\r\nWidth                                    : 1 920 pixels\r\nHeight                                   : 1 080 pixels\r\nDisplay aspect ratio                     : 16:9\r\nFrame rate                               : 25.000 fps\r\nBits/(Pixel*Frame)                       : 0.037\r\nStream size                              : 578 MiB (82%)\r\nWriting library                          : Lavc57.48.101 libx265\r\nLanguage                                 : English\r\nDefault                                  : Yes\r\nForced                                   : No\r\nDURATION                                 : 00:42:32.091000000\r\nNUMBER_OF_FRAMES                         : 61188\r\nNUMBER_OF_BYTES                          : 1676392160\r\n_STATISTICS_WRITING_APP                  : mkvmerge v9.2.0 ('Photograph') 64bit\r\n_STATISTICS_WRITING_DATE_UTC             : 2016-07-25 01:39:15\r\n_STATISTICS_TAGS                         : BPS DURATION NUMBER_OF_FRAMES NUMBER_OF_BYTES\r\n\r\nAudio\r\n\r\nID                                       : 2\r\nFormat                                   : AC-3\r\nFormat/Info                              : Audio Coding 3\r\nMode extension                           : CM (complete main)\r\nFormat settings, Endianness              : Big\r\nCodec ID                                 : A_AC3\r\nDuration                                 : 42mn 32s\r\nBit rate mode                            : Constant\r\nBit rate                                 : 384 Kbps\r\nChannel(s)                               : 6 channels\r\nChannel positions                        : Front: L C R, Side: L R, LFE\r\nSampling rate                            : 48.0 KHz\r\nBit depth                                : 16 bits\r\nCompression mode                         : Lossy\r\nStream size                              : 117 MiB (16%)\r\nWriting library                          : Lavc57.24.102 ac3\r\nLanguage                                 : English\r\nDefault                                  : Yes\r\nForced                                   : No\r\nDURATION                                 : 00:42:32.063000000\r\nNUMBER_OF_FRAMES                         : 79749\r\nNUMBER_OF_BYTES                          : 122494464\r\n_STATISTICS_WRITING_APP                  : mkvmerge v9.2.0 ('Photograph') 64bit\r\n_STATISTICS_WRITING_DATE_UTC             : 2016-07-25 01:39:15\r\n_STATISTICS_TAGS                         : BPS DURATION NUMBER_OF_FRAMES NUMBER_OF_BYTES\r\n\r\nText\r\n\r\nID                                       : 3\r\nFormat                                   : ASS\r\nCodec ID                                 : S_TEXT/ASS\r\nCodec ID/Info                            : Advanced Sub Station Alpha\r\nCompression mode                         : Lossless\r\nWriting library                          : Lavc57.48.101 ssa\r\nLanguage                                 : English\r\nDefault                                  : Yes\r\nForced                                   : No\r\nDURATION                                 : 00:42:05.906000000\r\nNUMBER_OF_FRAMES                         : 1017\r\nNUMBER_OF_BYTES                          : 38780\r\n_STATISTICS_WRITING_APP                  : mkvmerge v9.2.0 ('Photograph') 64bit\r\n_STATISTICS_WRITING_DATE_UTC             : 2016-07-25 01:39:15\r\n_STATISTICS_TAGS                         : BPS DURATION NUMBER_OF_FRAMES NUMBER_OF_BYTES\r\n\r\n\r\n__--__--__--__--__--__--__--__--__--__--__--__--__--\r\n\r\n\r\nIMDb: http://www.imdb.com/title/tt3952222\r\n\r\n\r\n __--__--__--__--__--__--__--__--__--__--__--__--__--\r\n\r\n\r\nAfter adding torrent with maget link,\r\n\r\nplease add this  following trackers list to the torrent for better seeds.\r\n\r\n\r\nudp://tracker.coppersurfer.tk:6969/announce\r\n\r\nudp://tracker.opentrackr.org:1337/announce\r\n \nhttp://tracker.baravik.org:6970/announce\r\n \nhttp://tracker2.wasabii.com.tw:6969/announce\r\n\r\nudp://9.rarbg.me:2710/announce\r\n\r\n\r\n__--__--__--__--__--__--__--__--__--__--__--__--__--\r\n\r\n\r\nEnjoy!","torrent":{"xt":"urn:btih:48a05f6657885079cc1f926ae29955a852a8dbee","amp;dn":"Killjoys+S02E04+1080p+WEB-DL+HEVC+DD5.1+x265+%5B1080P%5D%5BHEVC%5D","amp;tr":["udp%3A%2F%2Ftracker.leechers-paradise.org%3A6969","udp%3A%2F%2Fzer0day.ch%3A1337","udp%3A%2F%2Fopen.demonii.com%3A1337","udp%3A%2F%2Ftracker.coppersurfer.tk%3A6969","udp%3A%2F%2Fexodus.desync.com%3A6969"],"infoHash":"48a05f6657885079cc1f926ae29955a852a8dbee","infoHashBuffer":{"type":"Buffer","data":[72,160,95,102,87,136,80,121,204,31,146,106,226,153,85,168,82,168,219,238]},"announce":[],"urlList":[]}}